<svg width="800" height="401" viewBox="0 0 800 401" fill="none" xmlns="http://www.w3.org/2000/svg">
<path d="M0 400.56C0 179.64 179.087 0.560059 400 0.560059C620.913 0.560059 800 179.64 800 400.56" fill="url(#paint0_radial_260_82)"/>
<path d="M593.447 400.56H601.1L596.767 380.313H589.113L593.447 400.56Z" fill="#E5EEF4"/>
<path d="M524.513 400.56H532.167L536.42 380.313H528.773L524.513 400.56Z" fill="#D4E3ED"/>
<path d="M554.013 297.753H546.36L529.94 375H537.593L554.013 297.753Z" fill="#D4E3ED"/>
<path d="M562.547 257.607L558.827 240.393H558.553L547.787 291.047H555.44L562.547 257.607Z" fill="#D4E3ED"/>
<path d="M578.88 297.753H571.227L587.927 375H595.58L578.88 297.753Z" fill="#E5EEF4"/>
<path d="M566.48 240.393H566.2H558.827L562.547 257.607L569.773 291.047H577.427L566.48 240.393Z" fill="#E5EEF4"/>
<path d="M571.227 297.753H578.88L577.427 291.047H569.773L571.227 297.753Z" fill="#D4E3ED"/>
<path d="M555.44 291.047H547.787L546.36 297.753H554.013L555.44 291.047Z" fill="#B9D1E1"/>
<path d="M587.66 373.607L589.113 380.313H596.767L595.313 373.607H587.66Z" fill="#D4E3ED"/>
<path d="M530.2 373.607L528.773 380.313H536.42L537.847 373.607H530.2Z" fill="#B9D1E1"/>
<path d="M616.147 400.56H623.8L628.067 380.313H620.414L616.147 400.56Z" fill="#D4E3ED"/>
<path d="M621.58 375H629.233L645.647 297.753H638L621.58 375Z" fill="#D4E3ED"/>
<path d="M650.46 240.393H650.187L639.42 291.047H647.073L654.18 257.607L650.46 240.393Z" fill="#D4E3ED"/>
<path d="M670.513 297.753H662.86L679.56 375H687.213L670.513 297.753Z" fill="#E5EEF4"/>
<path d="M688.267 380.313H680.613L685.087 400.56H692.74L688.267 380.313Z" fill="#E5EEF4"/>
<path d="M658.113 240.393H657.84H650.46L654.18 257.607L661.413 291.047H669.067L658.113 240.393Z" fill="#E5EEF4"/>
<path d="M662.86 297.753H670.513L669.067 291.047H661.413L662.86 297.753Z" fill="#D4E3ED"/>
<path d="M647.073 291.047H639.42L638 297.753H645.647L647.073 291.047Z" fill="#B9D1E1"/>
<path d="M679.167 373.607L680.613 380.313H688.267L686.82 373.607H679.167Z" fill="#D4E3ED"/>
<path d="M621.84 373.607L620.413 380.313H628.067L629.493 373.607H621.84Z" fill="#B9D1E1"/>
<path d="M532.153 257.047L522.42 291.047H552.413L542.687 257.047H532.153Z" fill="#B9D1E1"/>
<path d="M674.32 257.047H672.3H659.427L665.867 279.547L669.153 291.047H684.053L674.32 257.047Z" fill="#EFF5F9"/>
<path d="M630.3 257.047L640.033 291.047H654.927L645.2 257.047H630.3Z" fill="#EFF5F9"/>
<path d="M542.687 257.047L552.413 291.047H567.56L557.833 257.047H542.687Z" fill="#EFF5F9"/>
<path d="M601.18 257.047L610.907 291.047H625.807L616.08 257.047H601.18Z" fill="#EFF5F9"/>
<path d="M572.053 257.047L581.787 291.047H596.68L586.953 257.047H572.053Z" fill="#EFF5F9"/>
<path d="M557.833 257.047L567.56 291.047H581.787L572.053 257.047H557.833Z" fill="#D4E3ED"/>
<path d="M586.953 257.047L596.68 291.047H610.906L601.18 257.047H586.953Z" fill="#D4E3ED"/>
<path d="M616.08 257.047L625.807 291.047H640.033L630.3 257.047H616.08Z" fill="#D4E3ED"/>
<path d="M665.867 279.547L659.427 257.047H645.2L654.927 291.047H662.574H669.154L665.867 279.547Z" fill="#D4E3ED"/>
<path d="M674.32 257.047L684.053 291.047H692.567L682.84 257.047H674.32Z" fill="#D4E3ED"/>
<path d="M646.293 373.607H506.14L515.873 339.607H656.027L646.293 373.607Z" fill="#B9D1E1"/>
<path d="M710.047 373.607H536.133L526.407 339.607H700.32L710.047 373.607Z" fill="#EFF5F9"/>
<path d="M564.434 373.607H550.207L540.48 339.607H554.707L564.434 373.607Z" fill="#D4E3ED"/>
<path d="M593.56 373.607H579.333L569.6 339.607H583.827L593.56 373.607Z" fill="#D4E3ED"/>
<path d="M622.68 373.607H608.453L598.727 339.607H612.953L622.68 373.607Z" fill="#D4E3ED"/>
<path d="M651.8 373.607H637.58L627.847 339.607H642.073L651.8 373.607Z" fill="#D4E3ED"/>
<path d="M680.927 373.607H666.7L656.973 339.607H671.2L680.927 373.607Z" fill="#D4E3ED"/>
<path d="M710.047 373.607H695.82L686.093 339.607H700.32L710.047 373.607Z" fill="#D4E3ED"/>
<path d="M159.26 397.993H225.153L224.066 394.293H160.36L159.26 397.993Z" fill="#D4E3ED"/>
<path d="M210.66 348.6H173.953L167.153 371.467H217.373L210.66 348.6Z" fill="#D4E3ED"/>
<path d="M198.666 307.647C196.846 301.4 188 301.387 186.16 307.647L180.76 325.793H203.98L198.666 307.647Z" fill="#D4E3ED"/>
<path d="M203.96 325.773H180.74L173.953 348.6H210.66L203.96 325.773Z" fill="#EFF5F9"/>
<path d="M167.153 371.467L160.36 394.294H224.067L217.373 371.467H167.153Z" fill="#EFF5F9"/>
<path d="M233.6 394.293H151.027V400.56H233.6V394.293Z" fill="#D4E3ED"/>
<path d="M282.307 374.313H211.193V349.333C223.673 325.66 239.193 300.7 268.527 257.613H310.733V350.44H329.553V374.313H310.733V400.56H282.307V374.313ZM237.247 351.233H282.907V279.027H282.307C261.64 308.84 248.633 329.147 237.247 350.44V351.233Z" fill="#8EB3CE"/>
<path d="M263.427 374.313H192.313V349.333C204.793 325.66 220.313 300.7 249.647 257.613H291.84V350.44H310.667V374.313H291.853V400.56H263.427V374.313ZM218.36 351.233H264V279.027H263.407C242.707 308.84 229.733 329.147 218.34 350.44L218.36 351.233Z" fill="#B9D1E1"/>
<path d="M395.607 377.134C378.374 377.134 368.307 359.42 368.307 327.387C368.307 295.64 378.567 278.054 395.607 278.054L344.94 276.18C344.94 276.18 343.86 376.414 344.94 377.16C346.02 377.907 388.667 386 388.667 386L395.607 377.134Z" fill="#8EB3CE"/>
<path d="M395.607 254.6H377.213L370.04 268.053L404.413 272.913L410.267 294.773C410.267 294.773 404.327 380.853 404.413 381.933C404.5 383.013 377.213 400.553 377.213 400.553H395.607C431.027 400.553 452.513 372.393 452.513 327.287C452.513 282.18 430.833 254.6 395.607 254.6Z" fill="#8EB3CE"/>
<path d="M320.207 327.387C320.207 282.28 341.98 254.6 377.213 254.6C412.447 254.6 434.127 282.187 434.127 327.267C434.127 372.347 412.667 400.553 377.213 400.553C341.76 400.553 320.207 372.587 320.207 327.387ZM404.413 327.387C404.413 295.54 394.347 278.053 377.213 278.053C360.08 278.053 349.92 295.667 349.92 327.387C349.92 359.387 359.987 377.133 377.213 377.133C394.44 377.133 404.413 359.42 404.413 327.387Z" fill="#B9D1E1"/>
<path d="M530.587 374.313H459.473V349.333C471.953 325.66 487.473 300.7 516.807 257.613H559V350.44H577.82V374.313H559.013V400.56H530.587V374.313ZM485.52 351.233H531.18V279.027H530.587C509.92 308.84 496.913 329.147 485.52 350.44V351.233Z" fill="#8EB3CE"/>
<path d="M511.707 374.313H440.587V349.333C453.067 325.66 468.587 300.7 497.92 257.613H540.133V350.44H558.947V374.313H540.133V400.56H511.707V374.313ZM466.667 351.233H512.327V279.027H511.733C491.067 308.84 478.053 329.147 466.667 350.44V351.233Z" fill="#B9D1E1"/>
<defs>
<radialGradient id="paint0_radial_260_82" cx="0" cy="0" r="1" gradientUnits="userSpaceOnUse" gradientTransform="translate(397.813 400.88) scale(379.287)">
<stop stop-color="#F6F9FC"/>
<stop offset="1" stop-color="white" stop-opacity="0"/>
</radialGradient>
</defs>
</svg>
