<svg width="560" height="161" viewBox="0 0 560 161" fill="none" xmlns="http://www.w3.org/2000/svg">
<path d="M442.447 160.56H450.1L445.767 140.313H438.113L442.447 160.56Z" fill="#E5EEF4"/>
<path d="M373.513 160.56H381.167L385.42 140.313H377.773L373.513 160.56Z" fill="#D4E3ED"/>
<path d="M403.013 57.7534H395.36L378.94 135H386.593L403.013 57.7534Z" fill="#D4E3ED"/>
<path d="M411.547 17.6066L407.827 0.393311H407.553L396.787 51.0466H404.44L411.547 17.6066Z" fill="#D4E3ED"/>
<path d="M427.88 57.7534H420.227L436.927 135H444.58L427.88 57.7534Z" fill="#E5EEF4"/>
<path d="M415.48 0.393311H415.2H407.827L411.547 17.6066L418.773 51.0466H426.427L415.48 0.393311Z" fill="#E5EEF4"/>
<path d="M420.227 57.7533H427.88L426.427 51.0466H418.773L420.227 57.7533Z" fill="#D4E3ED"/>
<path d="M404.44 51.0466H396.787L395.36 57.7533H403.013L404.44 51.0466Z" fill="#B9D1E1"/>
<path d="M436.66 133.607L438.113 140.313H445.767L444.313 133.607H436.66Z" fill="#D4E3ED"/>
<path d="M379.2 133.607L377.773 140.313H385.42L386.847 133.607H379.2Z" fill="#B9D1E1"/>
<path d="M465.147 160.56H472.8L477.067 140.313H469.414L465.147 160.56Z" fill="#D4E3ED"/>
<path d="M470.58 135H478.233L494.646 57.7534H487L470.58 135Z" fill="#D4E3ED"/>
<path d="M499.46 0.393311H499.187L488.42 51.0466H496.073L503.18 17.6066L499.46 0.393311Z" fill="#D4E3ED"/>
<path d="M519.513 57.7534H511.86L528.56 135H536.213L519.513 57.7534Z" fill="#E5EEF4"/>
<path d="M537.267 140.313H529.613L534.087 160.56H541.74L537.267 140.313Z" fill="#E5EEF4"/>
<path d="M507.113 0.393311H506.84H499.46L503.18 17.6066L510.413 51.0466H518.067L507.113 0.393311Z" fill="#E5EEF4"/>
<path d="M511.86 57.7533H519.513L518.067 51.0466H510.413L511.86 57.7533Z" fill="#D4E3ED"/>
<path d="M496.073 51.0466H488.42L487 57.7533H494.647L496.073 51.0466Z" fill="#B9D1E1"/>
<path d="M528.167 133.607L529.613 140.313H537.267L535.82 133.607H528.167Z" fill="#D4E3ED"/>
<path d="M470.84 133.607L469.413 140.313H477.067L478.493 133.607H470.84Z" fill="#B9D1E1"/>
<path d="M381.153 17.0466L371.42 51.0466H401.413L391.687 17.0466H381.153Z" fill="#B9D1E1"/>
<path d="M523.32 17.0466H521.3H508.427L514.866 39.5466L518.153 51.0466H533.053L523.32 17.0466Z" fill="#EFF5F9"/>
<path d="M479.3 17.0466L489.033 51.0466H503.927L494.2 17.0466H479.3Z" fill="#EFF5F9"/>
<path d="M391.686 17.0466L401.413 51.0466H416.56L406.833 17.0466H391.686Z" fill="#EFF5F9"/>
<path d="M450.18 17.0466L459.907 51.0466H474.807L465.08 17.0466H450.18Z" fill="#EFF5F9"/>
<path d="M421.053 17.0466L430.787 51.0466H445.68L435.953 17.0466H421.053Z" fill="#EFF5F9"/>
<path d="M406.833 17.0466L416.56 51.0466H430.787L421.053 17.0466H406.833Z" fill="#D4E3ED"/>
<path d="M435.953 17.0466L445.68 51.0466H459.906L450.18 17.0466H435.953Z" fill="#D4E3ED"/>
<path d="M465.08 17.0466L474.807 51.0466H489.033L479.3 17.0466H465.08Z" fill="#D4E3ED"/>
<path d="M514.867 39.5466L508.427 17.0466H494.2L503.927 51.0466H511.573H518.153L514.867 39.5466Z" fill="#D4E3ED"/>
<path d="M523.32 17.0466L533.053 51.0466H541.567L531.84 17.0466H523.32Z" fill="#D4E3ED"/>
<path d="M495.293 133.607H355.14L364.873 99.6067H505.027L495.293 133.607Z" fill="#B9D1E1"/>
<path d="M559.047 133.607H385.133L375.407 99.6067H549.32L559.047 133.607Z" fill="#EFF5F9"/>
<path d="M413.434 133.607H399.207L389.48 99.6067H403.707L413.434 133.607Z" fill="#D4E3ED"/>
<path d="M442.56 133.607H428.333L418.6 99.6067H432.827L442.56 133.607Z" fill="#D4E3ED"/>
<path d="M471.68 133.607H457.453L447.727 99.6067H461.953L471.68 133.607Z" fill="#D4E3ED"/>
<path d="M500.8 133.607H486.58L476.846 99.6067H491.073L500.8 133.607Z" fill="#D4E3ED"/>
<path d="M529.927 133.607H515.7L505.973 99.6067H520.2L529.927 133.607Z" fill="#D4E3ED"/>
<path d="M559.047 133.607H544.82L535.093 99.6067H549.32L559.047 133.607Z" fill="#D4E3ED"/>
<path d="M8.25977 157.993H74.1531L73.0664 154.293H9.35976L8.25977 157.993Z" fill="#D4E3ED"/>
<path d="M59.66 108.6H22.9533L16.1533 131.467H66.3733L59.66 108.6Z" fill="#D4E3ED"/>
<path d="M47.6664 67.6465C45.8464 61.3999 36.9997 61.3865 35.1597 67.6465L29.7598 85.7932H52.9798L47.6664 67.6465Z" fill="#D4E3ED"/>
<path d="M52.9598 85.7734H29.7398L22.9531 108.6H59.6598L52.9598 85.7734Z" fill="#EFF5F9"/>
<path d="M16.1532 131.467L9.35986 154.293H73.0665L66.3732 131.467H16.1532Z" fill="#EFF5F9"/>
<path d="M82.6 154.293H0.0266113V160.56H82.6V154.293Z" fill="#D4E3ED"/>
<path d="M131.307 134.313H60.1934V109.333C72.6734 85.6599 88.1934 60.6999 117.527 17.6133H159.733V110.44H178.553V134.313H159.733V160.56H131.307V134.313ZM86.2467 111.233H131.907V39.0266H131.307C110.64 68.8399 97.6334 89.1466 86.2467 110.44V111.233Z" fill="#8EB3CE"/>
<path d="M112.427 134.313H41.3132V109.333C53.7932 85.6599 69.3132 60.6999 98.6466 17.6133H140.84V110.44H159.667V134.313H140.853V160.56H112.427V134.313ZM67.3599 111.233H113V39.0266H112.407C91.7066 68.8399 78.7332 89.1466 67.3399 110.44L67.3599 111.233Z" fill="#B9D1E1"/>
<path d="M244.607 137.133C227.373 137.133 217.307 119.42 217.307 87.3866C217.307 55.6399 227.567 38.0533 244.607 38.0533L193.94 36.1799C193.94 36.1799 192.86 136.413 193.94 137.16C195.02 137.907 237.667 146 237.667 146L244.607 137.133Z" fill="#8EB3CE"/>
<path d="M244.606 14.6001H226.213L219.04 28.0534L253.413 32.9134L259.266 54.7734C259.266 54.7734 253.326 140.853 253.413 141.933C253.5 143.013 226.213 160.553 226.213 160.553H244.606C280.026 160.553 301.513 132.393 301.513 87.2867C301.513 42.1801 279.833 14.6001 244.606 14.6001Z" fill="#8EB3CE"/>
<path d="M169.207 87.3868C169.207 42.2801 190.98 14.6001 226.213 14.6001C261.447 14.6001 283.127 42.1868 283.127 87.2668C283.127 132.347 261.667 160.553 226.213 160.553C190.76 160.553 169.207 132.587 169.207 87.3868ZM253.413 87.3868C253.413 55.5401 243.347 38.0534 226.213 38.0534C209.08 38.0534 198.92 55.6668 198.92 87.3868C198.92 119.387 208.987 137.133 226.213 137.133C243.44 137.133 253.413 119.42 253.413 87.3868Z" fill="#B9D1E1"/>
<path d="M379.587 134.313H308.473V109.333C320.953 85.6599 336.473 60.6999 365.807 17.6133H408V110.44H426.82V134.313H408.013V160.56H379.587V134.313ZM334.52 111.233H380.18V39.0266H379.587C358.92 68.8399 345.913 89.1466 334.52 110.44V111.233Z" fill="#8EB3CE"/>
<path d="M360.707 134.313H289.587V109.333C302.067 85.6599 317.587 60.6999 346.92 17.6133H389.133V110.44H407.947V134.313H389.133V160.56H360.707V134.313ZM315.667 111.233H361.327V39.0266H360.733C340.067 68.8399 327.053 89.1466 315.667 110.44V111.233Z" fill="#B9D1E1"/>
</svg>
