<svg width="431" height="257" viewBox="0 0 431 257" fill="none" xmlns="http://www.w3.org/2000/svg">
<path d="M354.547 161.887C354.549 153.089 358 144.643 364.16 138.362C370.32 132.081 378.698 128.466 387.493 128.293C406.327 127.933 421.747 143.713 421.747 162.553V187.14H410.613V161.887C410.512 155.977 408.093 150.343 403.877 146.2C399.662 142.056 393.988 139.734 388.077 139.734C382.166 139.734 376.492 142.056 372.276 146.2C368.061 150.343 365.642 155.977 365.54 161.887V162L365.434 187.113H354.333L354.547 161.887Z" fill="#E5EEF4"/>
<path d="M384.106 219.2C382.043 218.304 380.351 216.724 379.317 214.726C378.282 212.728 377.967 210.435 378.425 208.232C378.882 206.03 380.085 204.052 381.83 202.632C383.576 201.213 385.757 200.438 388.006 200.438C390.256 200.438 392.437 201.213 394.182 202.632C395.928 204.052 397.13 206.03 397.588 208.232C398.046 210.435 397.731 212.728 396.696 214.726C395.661 216.724 393.97 218.304 391.906 219.2L396.46 243.787C396.495 243.981 396.487 244.18 396.436 244.371C396.386 244.562 396.293 244.738 396.165 244.889C396.038 245.04 395.878 245.16 395.699 245.241C395.519 245.323 395.324 245.363 395.126 245.36H380.86C380.662 245.363 380.467 245.323 380.287 245.241C380.108 245.16 379.948 245.04 379.821 244.889C379.693 244.738 379.601 244.562 379.55 244.371C379.499 244.18 379.491 243.981 379.526 243.787L384.106 219.2Z" fill="#030091"/>
<path d="M384.106 219.2C382.043 218.304 380.351 216.724 379.317 214.726C378.282 212.728 377.967 210.435 378.425 208.232C378.882 206.03 380.085 204.052 381.83 202.632C383.576 201.213 385.757 200.438 388.006 200.438C390.256 200.438 392.437 201.213 394.182 202.632C395.928 204.052 397.13 206.03 397.588 208.232C398.046 210.435 397.731 212.728 396.696 214.726C395.661 216.724 393.97 218.304 391.906 219.2L396.46 243.787C396.495 243.981 396.487 244.18 396.436 244.371C396.386 244.562 396.293 244.738 396.165 244.889C396.038 245.04 395.878 245.16 395.699 245.241C395.519 245.323 395.324 245.363 395.126 245.36H380.86C380.662 245.363 380.467 245.323 380.287 245.241C380.108 245.16 379.948 245.04 379.821 244.889C379.693 244.738 379.601 244.562 379.55 244.371C379.499 244.18 379.491 243.981 379.526 243.787L384.106 219.2Z" fill="#D4E3ED"/>
<path d="M345.066 188.467V240.713C345.066 244.904 346.731 248.923 349.694 251.886C352.657 254.849 356.676 256.513 360.866 256.513H415.18C419.37 256.513 423.389 254.849 426.352 251.886C429.315 248.923 430.98 244.904 430.98 240.713V188.467C430.98 188.113 430.839 187.774 430.589 187.524C430.339 187.274 430 187.133 429.646 187.133H346.393C346.041 187.135 345.703 187.276 345.455 187.526C345.206 187.776 345.066 188.114 345.066 188.467ZM384.12 219.2C382.055 218.303 380.363 216.721 379.327 214.722C378.292 212.724 377.977 210.429 378.435 208.225C378.893 206.021 380.097 204.042 381.843 202.621C383.589 201.2 385.772 200.425 388.023 200.425C390.274 200.425 392.457 201.2 394.203 202.621C395.95 204.042 397.153 206.021 397.611 208.225C398.07 210.429 397.754 212.724 396.719 214.722C395.684 216.721 393.991 218.303 391.926 219.2L396.473 243.787C396.509 243.981 396.501 244.18 396.45 244.371C396.399 244.561 396.306 244.738 396.179 244.889C396.051 245.039 395.892 245.16 395.712 245.241C395.532 245.323 395.337 245.363 395.14 245.36H380.88C380.682 245.363 380.487 245.323 380.307 245.241C380.128 245.16 379.968 245.039 379.841 244.889C379.713 244.738 379.621 244.561 379.57 244.371C379.519 244.18 379.511 243.981 379.546 243.787L384.12 219.2Z" fill="#EFF5F9"/>
<path d="M354.3 187.14H365.433L365.473 177.394L354.3 187.14Z" fill="#D4E3ED"/>
<path d="M411.04 137.633L402.78 144.847C405.236 146.955 407.208 149.569 408.56 152.51C409.912 155.451 410.613 158.65 410.614 161.887V187.14H421.747V162.553C421.736 157.892 420.782 153.281 418.942 148.998C417.102 144.716 414.414 140.85 411.04 137.633Z" fill="#D4E3ED"/>
<path d="M169.453 145.413H8.47333C4.16551 145.413 0.67334 148.906 0.67334 153.213V248.713C0.67334 253.021 4.16551 256.513 8.47333 256.513H169.453C173.761 256.513 177.253 253.021 177.253 248.713V153.213C177.253 148.906 173.761 145.413 169.453 145.413Z" fill="#EFF5F9"/>
<path d="M177.253 170.007H0.67334V190.233H177.253V170.007Z" fill="#D4E3ED"/>
<path d="M52.7533 215.053H28C24.771 215.053 22.1533 217.671 22.1533 220.9V234.254C22.1533 237.483 24.771 240.1 28 240.1H52.7533C55.9823 240.1 58.6 237.483 58.6 234.254V220.9C58.6 217.671 55.9823 215.053 52.7533 215.053Z" fill="#E5EEF4"/>
<path d="M155.407 220.807H98.8599V224.214H155.407V220.807Z" fill="#D4E3ED"/>
<path d="M127.133 230.94H98.8599V234.347H127.133V230.94Z" fill="#D4E3ED"/>
<path d="M233.207 0.420166H224.793L225.973 5.89349C186.307 33.9402 128.447 45.2802 128.447 45.2802V114.474C128.447 202.42 205.907 243.88 227.613 253.773L224.793 256.16H233.207C233.207 256.16 337.967 216.747 337.967 114.474V45.2802C337.967 45.2802 272.62 32.4735 233.207 0.420166Z" fill="#008F68"/>
<path d="M224.793 0.420166C185.373 32.4735 120.033 45.2802 120.033 45.2802V114.474C120.033 216.747 224.793 256.16 224.793 256.16C224.793 256.16 329.553 216.747 329.553 114.474V45.2802C329.553 45.2802 264.207 32.4735 224.793 0.420166Z" fill="#00AD87"/>
<path d="M131.9 170.667C159.327 231.507 224.793 256.133 224.793 256.133C224.793 256.133 329.553 216.72 329.553 114.447V45.28C329.553 45.28 297.213 38.94 264.333 24L131.9 170.667Z" fill="#0DBC9C"/>
<path d="M224.847 226.547C211.885 219.958 199.793 211.784 188.847 202.213C161.08 177.72 147 148.2 147 114.473V66.3801C167.24 60.6868 198.127 50.1734 224.793 33.4468C251.46 50.1734 282.347 60.6868 302.587 66.3801V114.473C302.587 180.46 247.5 215.1 224.847 226.547Z" fill="#F6F9FC"/>
<path d="M188.84 202.2C199.786 211.771 211.879 219.944 224.84 226.533C247.507 215.087 302.58 180.453 302.58 114.467V66.3667C287.427 62.1067 266.3 55.1401 245.453 44.8867L152.12 148.22C158.52 168.207 170.78 186.267 188.84 202.2Z" fill="white"/>
<path d="M194.473 202.213C166.707 177.72 152.633 148.213 152.633 114.473V66.3801C172.167 60.8868 201.607 50.8801 227.607 35.1601C226.667 34.5934 225.72 34.0334 224.793 33.4468C198.127 50.1734 167.24 60.6868 147 66.3801V114.473C147 148.2 161.08 177.72 188.84 202.213C199.786 211.784 211.879 219.958 224.84 226.547C225.727 226.1 226.68 225.6 227.667 225.08C215.756 218.765 204.618 211.092 194.473 202.213Z" fill="#D4E3ED"/>
<path d="M218.22 154.5L188.413 126.947L198.186 116.373L216.84 133.613L254.633 88.0933L265.713 97.2933L218.22 154.5Z" fill="#0DBC9C"/>
</svg>
