<svg width="600" height="301" viewBox="0 0 600 301" fill="none" xmlns="http://www.w3.org/2000/svg">
<path d="M0 300.92C0 135.23 134.315 0.919922 300 0.919922C465.685 0.919922 600 135.23 600 300.92" fill="url(#paint0_radial_259_27)"/>
<path d="M227.555 276.995H164.225V297.58H227.555V276.995Z" fill="#E5EEF4"/>
<path d="M213.96 239.16L212.15 234.31C222.695 230.375 230.43 223.465 235.15 213.78C236.828 210.323 238.037 206.657 238.745 202.88H222.3V197.705H244.425L244.275 200.44C244.275 200.73 243.83 207.62 239.89 215.83C236.25 223.415 228.8 233.615 213.96 239.16Z" fill="#E5EEF4"/>
<path d="M177.82 239.16L179.63 234.31C169.085 230.375 161.355 223.465 156.63 213.78C154.953 210.323 153.746 206.657 153.04 202.88H169.5V197.705H147.355L147.51 200.44C147.51 200.73 147.95 207.62 151.895 215.83C155.53 223.415 163 233.615 177.82 239.16Z" fill="#E5EEF4"/>
<path d="M231.985 297.58H159.8V300.92H231.985V297.58Z" fill="#D4E3ED"/>
<path d="M222.455 282.105H169.325V292.465H222.455V282.105Z" fill="#D4E3ED"/>
<path d="M199.5 249.155C199.5 249.155 226.935 243.4 226.935 190.85H164.865C164.865 243.4 192.295 249.155 192.295 249.155C192.295 268.58 172.84 275.5 172.84 275.5L171.745 277.27L195.89 276.995L220.04 277.27L218.94 275.5C218.94 275.5 199.5 268.58 199.5 249.155Z" fill="#EFF5F9"/>
<path d="M196.395 206.585L199.54 212.965C199.581 213.046 199.641 213.117 199.715 213.17C199.789 213.223 199.875 213.257 199.965 213.27L207 214.295C207.103 214.31 207.2 214.354 207.28 214.421C207.36 214.488 207.419 214.577 207.452 214.676C207.484 214.775 207.488 214.882 207.463 214.983C207.438 215.085 207.385 215.177 207.31 215.25L202.215 220.215C202.148 220.278 202.098 220.357 202.07 220.444C202.042 220.532 202.037 220.625 202.055 220.715L203.255 227.715C203.273 227.818 203.262 227.923 203.223 228.02C203.184 228.117 203.118 228.2 203.033 228.261C202.949 228.322 202.849 228.358 202.745 228.365C202.641 228.372 202.537 228.349 202.445 228.3L196.15 225C196.072 224.961 195.987 224.941 195.9 224.941C195.813 224.941 195.728 224.961 195.65 225L189.355 228.31C189.263 228.359 189.159 228.381 189.055 228.374C188.951 228.367 188.851 228.331 188.766 228.27C188.681 228.209 188.615 228.126 188.575 228.03C188.535 227.933 188.523 227.828 188.54 227.725L189.745 220.725C189.76 220.635 189.754 220.542 189.726 220.455C189.698 220.368 189.65 220.289 189.585 220.225L184.49 215.26C184.415 215.187 184.362 215.095 184.337 214.993C184.312 214.892 184.316 214.785 184.348 214.686C184.381 214.587 184.44 214.498 184.52 214.431C184.6 214.364 184.697 214.32 184.8 214.305L191.84 213.28C191.93 213.267 192.015 213.233 192.088 213.18C192.161 213.126 192.22 213.056 192.26 212.975L195.41 206.595C195.457 206.506 195.528 206.431 195.614 206.378C195.7 206.326 195.799 206.297 195.9 206.296C196 206.295 196.1 206.322 196.187 206.372C196.274 206.423 196.346 206.497 196.395 206.585Z" fill="#D4E3ED"/>
<path d="M448.66 182.185L449.94 200L456.445 197.15L457.285 182.185H448.66Z" fill="#D4E3ED"/>
<path d="M453.745 131.5L453.69 129.43C453.745 129.713 453.772 130.001 453.77 130.29C453.77 130.715 453.765 131.11 453.745 131.5Z" fill="url(#paint1_linear_259_27)"/>
<path d="M487.1 189.155C487.1 189.155 450.5 204.64 449.94 200C449.86 199.34 450.52 198.265 452.12 196.68C454.3 194.525 455.275 192.74 455.26 191.325V191.19L454 142.115C463.705 139.315 485.96 132.9 487.09 129.43L487.1 189.155Z" fill="#E5EEF4"/>
<path d="M454 142.115L453.745 131.5L453.69 129.43C452.19 121.395 430.13 122.28 414.43 127.495C395.855 133.67 390.38 138.13 390.38 138.13L403.79 202.355C427.365 187.1 454.83 182.94 455.255 191.19L454 142.115Z" fill="#EFF5F9"/>
<path d="M424.285 300.92L389.45 133.255L391.215 132.89L426.125 300.92H424.285Z" fill="#D4E3ED"/>
<path d="M277.15 212.5C274.295 219.33 268.115 235.4 266.86 249.47C265.67 262.835 260.15 278.22 256.36 287.55L253.7 300.935H263.13L281.97 212.5H277.15Z" fill="#B3D0E2"/>
<path d="M277.15 212.5H272.545L256.345 287.55C260.15 278.22 265.67 262.835 266.845 249.47C268.115 235.385 274.295 219.315 277.15 212.5Z" fill="#D0E2ED"/>
<path d="M327.5 213.565H318.045L327.71 259C332.325 271 337.875 282.97 344.3 292.665L327.5 213.565Z" fill="#84B3D0"/>
<path d="M346.055 300.92L344.3 292.67C337.875 283 326.095 241.705 321.5 229.72L336.645 300.92H346.055Z" fill="#B3D0E2"/>
<path d="M374.87 224.47L360.315 192.305H350.885L399.95 300.92H408.35C404.255 296.365 397.785 284.835 393.16 273.99C384.815 254.42 383.09 247.72 374.87 224.47Z" fill="#B3D0E2"/>
<path d="M369.445 212.5C377.665 235.75 384.815 254.435 393.16 274C397.785 284.845 404.255 296.375 408.35 300.93H409.455L369.445 212.5Z" fill="#D0E2ED"/>
<path d="M365.008 188.364C391.436 153.368 391.155 108.606 364.378 88.3844C337.602 68.163 294.471 80.14 268.042 115.136C241.613 150.132 241.895 194.894 268.671 215.116C295.448 235.337 338.579 223.36 365.008 188.364Z" fill="#D0E2ED"/>
<path d="M356.886 183.031C383.314 148.036 383.033 103.273 356.256 83.0519C329.48 62.8305 286.349 74.8075 259.92 109.803C233.491 144.799 233.773 189.562 260.549 209.783C287.326 230.004 330.457 218.027 356.886 183.031Z" fill="#EDF4F9"/>
<path d="M349.187 176.416C371.941 146.286 371.698 107.747 348.644 90.3361C325.589 72.9255 288.454 83.2368 265.7 113.367C242.945 143.497 243.189 182.037 266.243 199.447C289.298 216.858 326.433 206.547 349.187 176.416Z" fill="#FA4803"/>
<path d="M341.148 170.612C359.52 146.284 359.324 115.167 340.71 101.11C322.096 87.0523 292.113 95.3784 273.74 119.706C255.368 144.035 255.564 175.152 274.178 189.209C292.792 203.267 322.775 194.94 341.148 170.612Z" fill="#EDF4F9"/>
<path d="M332.398 165.177C346.819 146.081 346.665 121.654 332.053 110.619C317.44 99.5839 293.904 106.119 279.482 125.216C265.06 144.312 265.215 168.739 279.827 179.774C294.439 190.809 317.976 184.274 332.398 165.177Z" fill="#FA4803"/>
<path d="M323.434 158.864C333.522 145.506 333.415 128.419 323.194 120.701C312.974 112.983 296.51 117.555 286.422 130.913C276.334 144.271 276.441 161.358 286.661 169.076C296.882 176.794 313.345 172.222 323.434 158.864Z" fill="#EDF4F9"/>
<path d="M314.058 151.782C319.668 144.354 319.607 134.851 313.921 130.558C308.236 126.264 299.079 128.805 293.469 136.234C287.859 143.662 287.92 153.165 293.606 157.458C299.291 161.752 308.448 159.211 314.058 151.782Z" fill="#FA4803"/>
<path fill-rule="evenodd" clip-rule="evenodd" d="M298.49 141.615L190.545 66.3399L191.74 64.8699L299.69 140.15L298.49 141.615Z" fill="#002272"/>
<path fill-rule="evenodd" clip-rule="evenodd" d="M224.135 88.5448L209.13 69.0698L195.88 68.9348L224.135 88.5448Z" fill="#007DFF"/>
<path fill-rule="evenodd" clip-rule="evenodd" d="M224.12 88.5648L200.64 81.2898L195.89 68.9148L224.12 88.5648Z" fill="#1757D9"/>
<path fill-rule="evenodd" clip-rule="evenodd" d="M304.325 144.49L298 133.825L292.13 142.24L304.325 144.49Z" fill="#1D2141"/>
<g opacity="0.2">
<path opacity="0.2" d="M356.965 183.135C382.695 149.065 383.1 105.74 358.395 84.8149C334.395 87.0549 317.895 101.89 320.835 125.93C325.175 161.64 316.105 182.095 281.97 187.695C264.47 190.57 264.765 198.755 265.085 212.84C292 228.73 331.95 216.245 356.965 183.135Z" fill="white"/>
</g>
<defs>
<radialGradient id="paint0_radial_259_27" cx="0" cy="0" r="1" gradientUnits="userSpaceOnUse" gradientTransform="translate(298.36 301.16) scale(284.465)">
<stop stop-color="#F6F9FC"/>
<stop offset="1" stop-color="white" stop-opacity="0"/>
</radialGradient>
<linearGradient id="paint1_linear_259_27" x1="453.525" y1="130.505" x2="453.905" y2="130.425" gradientUnits="userSpaceOnUse">
<stop stop-color="#BA0101"/>
<stop offset="0.03" stop-color="#BF0403"/>
<stop offset="0.06" stop-color="#CD0D0A"/>
<stop offset="0.09" stop-color="#E51D15"/>
<stop offset="0.12" stop-color="#FF2E21"/>
<stop offset="0.29" stop-color="#FF8A85"/>
<stop offset="0.37" stop-color="#FC6059"/>
<stop offset="0.46" stop-color="#F9352C"/>
<stop offset="0.5" stop-color="#F8241A"/>
<stop offset="0.7" stop-color="#E7241A"/>
<stop offset="0.83" stop-color="#EE271C"/>
<stop offset="0.99" stop-color="#FF2E21"/>
</linearGradient>
</defs>
</svg>
