<svg width="488" height="278" viewBox="0 0 488 278" fill="none" xmlns="http://www.w3.org/2000/svg">
<path d="M464.64 276.94C465.036 277.335 465.573 277.558 466.133 277.56H476.733C477.294 277.558 477.832 277.334 478.228 276.936C478.624 276.539 478.847 276.001 478.847 275.44V270.28H457.98L464.64 276.94Z" fill="#E5EEF4"/>
<path d="M454.6 266.874C454.643 266.932 454.689 266.988 454.74 267.04L457.98 270.28H478.846V266.047H454.6V266.874Z" fill="#D4E3ED"/>
<path d="M396.373 276.94C395.977 277.335 395.44 277.558 394.88 277.56H384.28C383.719 277.558 383.181 277.334 382.785 276.936C382.389 276.539 382.167 276.001 382.167 275.44V270.28H403.033L396.373 276.94Z" fill="#E5EEF4"/>
<path d="M406.413 266.874C406.371 266.932 406.324 266.988 406.273 267.04L403.033 270.28H382.167V266.047H406.413V266.874Z" fill="#D4E3ED"/>
<path d="M477.906 153.853H382.82C377.698 153.853 373.546 158.005 373.546 163.126V258.213C373.546 263.335 377.698 267.486 382.82 267.486H477.906C483.028 267.486 487.18 263.335 487.18 258.213V163.126C487.18 158.005 483.028 153.853 477.906 153.853Z" fill="#EFF5F9"/>
<path d="M467.613 169.827C468.565 169.827 469.478 170.204 470.152 170.877C470.825 171.549 471.205 172.462 471.207 173.413V247.92C471.205 248.872 470.825 249.784 470.152 250.457C469.478 251.129 468.565 251.507 467.613 251.507H393.113C392.161 251.507 391.248 251.129 390.575 250.457C389.901 249.784 389.522 248.872 389.52 247.92V173.413C389.522 172.462 389.901 171.549 390.575 170.877C391.248 170.204 392.161 169.827 393.113 169.827H467.613ZM467.613 167.753H393.113C392.369 167.753 391.633 167.898 390.945 168.182C390.258 168.466 389.633 168.883 389.107 169.409C388.58 169.934 388.163 170.559 387.878 171.246C387.593 171.933 387.447 172.67 387.447 173.413V247.92C387.447 249.423 388.044 250.864 389.106 251.927C390.169 252.99 391.61 253.587 393.113 253.587H467.613C469.116 253.585 470.556 252.987 471.618 251.925C472.681 250.863 473.278 249.422 473.28 247.92V173.413C473.278 171.912 472.68 170.472 471.618 169.411C470.555 168.35 469.115 167.753 467.613 167.753Z" fill="#E5EEF4"/>
<path d="M390.326 177.927H385.973V189.907H390.326V177.927Z" fill="#D4E3ED"/>
<path d="M390.326 184.62H385.973V185.727H390.326V184.62Z" fill="#EFF5F9"/>
<path d="M390.326 231.48H385.973V243.46H390.326V231.48Z" fill="#D4E3ED"/>
<path d="M390.326 238.167H385.973V239.273H390.326V238.167Z" fill="#EFF5F9"/>
<path d="M454.6 218.167C458.617 218.167 461.873 214.91 461.873 210.893C461.873 206.877 458.617 203.62 454.6 203.62C450.583 203.62 447.326 206.877 447.326 210.893C447.326 214.91 450.583 218.167 454.6 218.167Z" fill="#D4E3ED"/>
<path d="M454.6 215.593C457.196 215.593 459.3 213.489 459.3 210.893C459.3 208.298 457.196 206.193 454.6 206.193C452.004 206.193 449.9 208.298 449.9 210.893C449.9 213.489 452.004 215.593 454.6 215.593Z" fill="#E5EEF4"/>
<path d="M456.666 210.893H452.52V229.566H456.666V210.893Z" fill="#B9D1E1"/>
<path d="M418.92 230.1C429.822 230.1 438.66 221.262 438.66 210.36C438.66 199.458 429.822 190.62 418.92 190.62C408.018 190.62 399.18 199.458 399.18 210.36C399.18 221.262 408.018 230.1 418.92 230.1Z" fill="#E5EEF4"/>
<path d="M418.92 223.873C426.383 223.873 432.433 217.823 432.433 210.36C432.433 202.897 426.383 196.847 418.92 196.847C411.456 196.847 405.406 202.897 405.406 210.36C405.406 217.823 411.456 223.873 418.92 223.873Z" fill="#D4E3ED"/>
<path d="M418.92 217.926C423.099 217.926 426.486 214.539 426.486 210.36C426.486 206.181 423.099 202.793 418.92 202.793C414.741 202.793 411.353 206.181 411.353 210.36C411.353 214.539 414.741 217.926 418.92 217.926Z" fill="#E5EEF4"/>
<path d="M418.827 195.807L419.753 192.58H417.86L418.827 195.807Z" fill="#B9D1E1"/>
<path d="M430.36 209.973H428.06V210.753H430.36V209.973Z" fill="#B9D1E1"/>
<path d="M409.78 209.973H407.48V210.753H409.78V209.973Z" fill="#B9D1E1"/>
<path d="M419.313 198.7H418.533V201H419.313V198.7Z" fill="#B9D1E1"/>
<path d="M424.394 200.174L423.111 202.083L423.758 202.518L425.042 200.609L424.394 200.174Z" fill="#B9D1E1"/>
<path d="M428.693 204.245L426.686 205.369L427.067 206.049L429.074 204.925L428.693 204.245Z" fill="#B9D1E1"/>
<path d="M413.444 200.204L412.796 200.639L414.079 202.548L414.727 202.113L413.444 200.204Z" fill="#B9D1E1"/>
<path d="M409.116 204.155L408.735 204.836L410.742 205.96L411.123 205.279L409.116 204.155Z" fill="#B9D1E1"/>
<path d="M419.313 219.727H418.533V222.027H419.313V219.727Z" fill="#B9D1E1"/>
<path d="M414.094 218.265L412.811 220.173L413.458 220.609L414.741 218.7L414.094 218.265Z" fill="#B9D1E1"/>
<path d="M410.762 214.734L408.756 215.857L409.137 216.538L411.143 215.414L410.762 214.734Z" fill="#B9D1E1"/>
<path d="M423.746 218.28L423.098 218.715L424.381 220.624L425.029 220.189L423.746 218.28Z" fill="#B9D1E1"/>
<path d="M427.086 214.746L426.705 215.426L428.711 216.55L429.092 215.87L427.086 214.746Z" fill="#B9D1E1"/>
<path d="M132.387 120.707H103L110.473 125.76V268.18L100.513 277.56H132.393C133.199 277.558 133.97 277.237 134.539 276.667C135.107 276.097 135.427 275.325 135.427 274.52V123.74C135.427 123.341 135.348 122.946 135.195 122.578C135.042 122.209 134.818 121.874 134.536 121.593C134.254 121.311 133.918 121.088 133.55 120.936C133.181 120.784 132.786 120.706 132.387 120.707Z" fill="#E5EEF4"/>
<path d="M108.48 120.707H18.3267C17.2332 120.707 16.3467 121.593 16.3467 122.687V275.58C16.3467 276.673 17.2332 277.56 18.3267 277.56H108.48C109.574 277.56 110.46 276.673 110.46 275.58V122.687C110.46 121.593 109.574 120.707 108.48 120.707Z" fill="#F6F9FC"/>
<path d="M100.5 192.553H69.9065V219.093H100.5V192.553Z" fill="#D4E3ED"/>
<path d="M87.7065 205.26H67.7532V206.393H87.7065V205.26Z" fill="#8EB3CE"/>
<path d="M87.7065 211.78H67.7532V212.913H87.7065V211.78Z" fill="#8EB3CE"/>
<path d="M73.1598 179.167H2.97317C1.87964 179.167 0.993164 180.053 0.993164 181.146V217.113C0.993164 218.207 1.87964 219.093 2.97317 219.093H73.1598C74.2533 219.093 75.1398 218.207 75.1398 217.113V181.146C75.1398 180.053 74.2533 179.167 73.1598 179.167Z" fill="#E5EEF4"/>
<path d="M46.5332 197.62H29.5933V200.633H46.5332V197.62Z" fill="#8EB3CE"/>
<path d="M98.5265 130.66H28.3399C27.2463 130.66 26.3599 131.546 26.3599 132.64V168.606C26.3599 169.7 27.2463 170.586 28.3399 170.586H98.5265C99.62 170.586 100.507 169.7 100.507 168.606V132.64C100.507 131.546 99.62 130.66 98.5265 130.66Z" fill="#E5EEF4"/>
<path d="M71.8997 149.12H54.9597V152.133H71.8997V149.12Z" fill="#8EB3CE"/>
<path d="M98.5265 227.673H28.3399C27.2463 227.673 26.3599 228.56 26.3599 229.653V265.62C26.3599 266.714 27.2463 267.6 28.3399 267.6H98.5265C99.62 267.6 100.507 266.714 100.507 265.62V229.653C100.507 228.56 99.62 227.673 98.5265 227.673Z" fill="#E5EEF4"/>
<path d="M71.8997 246.126H54.9597V249.14H71.8997V246.126Z" fill="#8EB3CE"/>
<path d="M138.9 68.6131L130 54.3931L75.0465 88.9997C73.8169 89.7765 72.9445 91.0081 72.6198 92.4257C72.295 93.8433 72.5443 95.3319 73.3131 96.5664L127.98 184.46C128.358 185.07 128.852 185.599 129.436 186.016C130.019 186.434 130.679 186.733 131.378 186.894C132.077 187.056 132.801 187.078 133.508 186.959C134.216 186.84 134.892 186.582 135.5 186.2L205.333 142.246C206.563 141.47 207.435 140.238 207.76 138.82C208.085 137.403 207.835 135.914 207.066 134.68L161.346 61.1464L148.466 69.2531C145.84 70.9064 140.546 71.2597 138.9 68.6131Z" fill="#FEECB2"/>
<path d="M138.553 68.1464C138.981 68.8398 139.541 69.4419 140.202 69.918C140.863 70.3942 141.611 70.735 142.404 70.9208C143.197 71.1067 144.019 71.134 144.823 71.0011C145.626 70.8682 146.396 70.5777 147.087 70.1464L161.347 61.1664L130.013 54.4131L138.553 68.1464Z" fill="#FDC920"/>
<path d="M140.193 139.38C153.249 139.38 163.833 128.736 163.833 115.606C163.833 102.477 153.249 91.833 140.193 91.833C127.137 91.833 116.553 102.477 116.553 115.606C116.553 128.736 127.137 139.38 140.193 139.38Z" fill="#FDC920"/>
<path d="M147.7 109.446L131.86 110.013C131.615 110.024 131.376 110.099 131.169 110.23C130.962 110.361 130.792 110.545 130.678 110.762C130.563 110.979 130.507 111.222 130.516 111.467C130.524 111.712 130.597 111.951 130.726 112.16L139.133 125.666C139.264 125.874 139.446 126.044 139.663 126.158C139.88 126.273 140.123 126.329 140.368 126.32C140.613 126.311 140.851 126.238 141.059 126.108C141.267 125.978 141.438 125.796 141.553 125.58L149 111.506C149.117 111.288 149.174 111.043 149.165 110.795C149.156 110.548 149.082 110.307 148.95 110.098C148.818 109.888 148.632 109.718 148.413 109.603C148.193 109.489 147.947 109.435 147.7 109.446Z" fill="#FE8D00"/>
<path d="M220.553 155H240.367C241.974 155.001 243.556 155.402 244.97 156.167C246.384 156.931 247.586 158.036 248.467 159.38L257.413 173C258.294 174.345 259.496 175.449 260.91 176.214C262.324 176.979 263.906 177.379 265.513 177.38H332.333L326.267 243.013L335.927 258.12H204.14C202.967 258.117 201.806 257.882 200.723 257.43C199.641 256.978 198.658 256.317 197.831 255.485C197.004 254.653 196.349 253.666 195.903 252.581C195.457 251.496 195.23 250.333 195.233 249.16V163.98C195.226 162.805 195.451 161.64 195.896 160.552C196.34 159.464 196.994 158.475 197.822 157.64C198.649 156.806 199.633 156.143 200.718 155.69C201.802 155.237 202.965 155.003 204.14 155H220.553Z" fill="#FD9F00"/>
<path d="M334.353 177.407H330.307C325.082 177.407 320.847 181.642 320.847 186.867V268.093C320.847 273.318 325.082 277.553 330.307 277.553H334.353C339.578 277.553 343.813 273.318 343.813 268.093V186.867C343.813 181.642 339.578 177.407 334.353 177.407Z" fill="#FD9F00"/>
<path d="M326.473 177.407H322.427C317.202 177.407 312.967 181.642 312.967 186.867V268.093C312.967 273.318 317.202 277.553 322.427 277.553H326.473C331.698 277.553 335.933 273.318 335.933 268.093V186.867C335.933 181.642 331.698 177.407 326.473 177.407Z" fill="#FD9F00"/>
<path d="M320.847 266.007V253.513C320.851 251.504 321.378 249.53 322.377 247.786C323.375 246.042 324.81 244.588 326.54 243.567V192.233C326.547 190.838 326.279 189.455 325.751 188.163C325.223 186.871 324.445 185.697 323.462 184.706C322.479 183.715 321.311 182.928 320.024 182.389C318.736 181.851 317.355 181.571 315.96 181.567H254.333C252.423 181.565 250.543 181.088 248.862 180.18C247.182 179.271 245.754 177.958 244.707 176.36L234.08 160.18C233.032 158.59 231.606 157.284 229.929 156.38C228.252 155.476 226.378 155.002 224.473 155H181.427C180.031 155.003 178.65 155.282 177.362 155.821C176.074 156.359 174.905 157.146 173.923 158.137C172.94 159.128 172.162 160.303 171.634 161.595C171.106 162.887 170.839 164.271 170.847 165.667V266.913C170.84 268.309 171.108 269.692 171.636 270.984C172.164 272.275 172.942 273.45 173.925 274.441C174.907 275.432 176.076 276.219 177.363 276.757C178.65 277.296 180.031 277.576 181.427 277.58H326.64V276.04C324.878 275.024 323.415 273.561 322.398 271.8C321.381 270.039 320.846 268.041 320.847 266.007Z" fill="#FE8D00"/>
<path d="M405.927 131.733L412.013 116.087L351.707 92.1599C351.039 91.8959 350.325 91.7665 349.608 91.7792C348.89 91.7919 348.181 91.9464 347.523 92.2339C346.865 92.5214 346.271 92.9362 345.773 93.4543C345.276 93.9725 344.887 94.5839 344.627 95.2533L306.813 191.707C306.279 193.059 306.303 194.567 306.879 195.902C307.455 197.236 308.537 198.288 309.887 198.827L386.52 229.227C387.188 229.49 387.901 229.618 388.619 229.605C389.336 229.592 390.044 229.437 390.702 229.15C391.36 228.863 391.955 228.448 392.452 227.931C392.949 227.413 393.339 226.802 393.6 226.133L425.227 145.467L411.1 139.86C408.213 138.713 404.787 134.633 405.927 131.733Z" fill="#FEECB2"/>
<path d="M406.093 131.18C405.489 132.713 405.517 134.423 406.17 135.936C406.823 137.449 408.049 138.642 409.58 139.253L425.226 145.46L412.013 116.086L406.093 131.18Z" fill="#FDC920"/>
<path d="M366.453 166.333L385.786 156.913L393.32 176.6L402.746 152.553C403.119 151.611 403.102 150.559 402.701 149.628C402.3 148.698 401.547 147.963 400.606 147.587L355 129.54C354.534 129.355 354.037 129.263 353.536 129.271C353.035 129.28 352.54 129.387 352.081 129.587C351.622 129.787 351.206 130.076 350.86 130.438C350.513 130.799 350.241 131.226 350.06 131.693L335.513 168.8C335.28 169.391 335.198 170.03 335.273 170.66L362.926 157.16L366.453 166.333Z" fill="#FDC920"/>
<path d="M337.353 173.667L337.653 173.807L345.167 176.786H345.22L337.353 173.667Z" fill="#FDC920"/>
<path d="M345.167 176.753L383.227 191.847C383.551 191.977 383.892 192.06 384.24 192.093L345.167 176.753Z" fill="#FDC920"/>
<path d="M366.453 166.333L362.927 157.133L335.273 170.633C335.347 171.262 335.575 171.863 335.938 172.382C336.301 172.901 336.788 173.322 337.353 173.607L345.22 176.7L366.453 166.333Z" fill="#FDB200"/>
<path d="M388.167 189.666L393.287 176.6L385.753 156.913L366.42 166.333L374.853 188.333L345.187 176.686H345.133L384.207 192.02C385.033 192.115 385.868 191.937 386.584 191.512C387.299 191.086 387.855 190.438 388.167 189.666Z" fill="#FE8D00"/>
<path d="M374.887 188.373L366.453 166.36L345.22 176.727L374.887 188.373Z" fill="#FE8D00"/>
<path d="M359.293 148.486C358.001 147.968 356.966 146.962 356.412 145.685C355.858 144.408 355.829 142.964 356.333 141.667C356.584 141.026 356.959 140.442 357.436 139.947C357.913 139.451 358.483 139.055 359.113 138.78C359.743 138.505 360.421 138.357 361.109 138.345C361.796 138.332 362.48 138.455 363.12 138.707C364.41 139.226 365.443 140.234 365.994 141.511C366.545 142.789 366.568 144.232 366.06 145.526C365.553 146.814 364.556 147.849 363.288 148.404C362.019 148.959 360.583 148.988 359.293 148.486Z" fill="#FEDF80"/>
<path d="M320.947 259.76L320.847 259.607V192.273C320.854 190.878 320.587 189.494 320.059 188.202C319.531 186.91 318.754 185.735 317.771 184.744C316.788 183.753 315.619 182.966 314.331 182.427C313.044 181.889 311.662 181.61 310.267 181.607H248.667C246.755 181.605 244.875 181.128 243.194 180.217C241.513 179.307 240.086 177.993 239.04 176.393L228.407 160.213C227.361 158.614 225.933 157.299 224.252 156.389C222.572 155.479 220.691 155.002 218.78 155H175.733C174.338 155.003 172.956 155.282 171.669 155.821C170.381 156.359 169.212 157.146 168.229 158.137C167.246 159.128 166.469 160.303 165.941 161.595C165.413 162.887 165.145 164.271 165.153 165.667V220.507C191.002 245.66 225.64 259.742 261.707 259.76H320.947Z" fill="#FDC000"/>
<path d="M175.733 277.56H332.333L320.947 259.76H261.707C225.64 259.742 191.002 245.66 165.153 220.507V266.913C165.149 268.307 165.419 269.688 165.948 270.978C166.478 272.267 167.256 273.439 168.238 274.428C169.221 275.417 170.388 276.202 171.674 276.74C172.96 277.277 174.34 277.556 175.733 277.56Z" fill="#FDB200"/>
<path d="M332.333 241.967C330.293 241.969 328.292 242.522 326.54 243.567V259.607L326.64 259.76V276.02C328.369 277.027 330.333 277.558 332.333 277.56C335.385 277.541 338.305 276.315 340.455 274.15C342.606 271.986 343.813 269.058 343.813 266.007V253.513C343.813 250.463 342.606 247.536 340.455 245.372C338.304 243.209 335.384 241.984 332.333 241.967Z" fill="#FD9F00"/>
<path d="M326.54 259.606V243.566C324.81 244.588 323.375 246.042 322.377 247.786C321.378 249.53 320.851 251.504 320.847 253.513V266.006C320.852 268.035 321.39 270.026 322.407 271.781C323.423 273.536 324.883 274.993 326.64 276.007V259.76L326.54 259.606Z" fill="#FE8D00"/>
<path d="M244.293 206.3H181.993V210.207H244.293V206.3Z" fill="#FD9F00"/>
<path d="M214.933 222.373H181.993V226.28H214.933V222.373Z" fill="#FD9F00"/>
<path d="M298.9 18.7532L299.926 1.97987L235.26 -2.20012C234.543 -2.2453 233.824 -2.14864 233.144 -1.9157C232.464 -1.68276 231.837 -1.31809 231.298 -0.84256C230.76 -0.367028 230.32 0.210027 230.005 0.855621C229.689 1.50122 229.504 2.20268 229.46 2.91987L222.846 106.387C222.749 107.835 223.231 109.263 224.186 110.357C225.141 111.451 226.491 112.121 227.94 112.22L310.153 117.553C311.601 117.641 313.024 117.15 314.111 116.189C315.197 115.227 315.857 113.874 315.946 112.427L321.48 25.8865L306.32 24.9065C303.2 24.6932 298.7 21.8665 298.9 18.7532Z" fill="#FEECB2"/>
<path d="M298.887 18.1733C298.779 19.8162 299.326 21.4349 300.41 22.6745C301.493 23.9142 303.024 24.6737 304.667 24.7866L321.453 25.8733L299.927 1.97998L298.887 18.1733Z" fill="#FDC920"/>
<path d="M265.62 60.2731C265.313 65.1531 262.56 68.0798 258.713 67.8331C257.72 67.8106 256.754 67.5059 255.927 66.9546C255.101 66.4033 254.449 65.6281 254.047 64.7198H253.973L253.513 72.3331L250.36 72.1265L251.693 51.6064L254.74 51.8064L254.573 54.4731H254.627C255.141 53.6077 255.89 52.9056 256.786 52.4479C257.683 51.9901 258.691 51.7955 259.693 51.8864C263.567 52.1464 265.933 55.3931 265.62 60.2731ZM262.387 60.0598C262.593 56.8398 261.167 54.6665 258.673 54.5065C256.18 54.3465 254.52 56.3598 254.313 59.5398C254.107 62.7198 255.58 64.9331 258 65.0931C260.42 65.2531 262.18 63.2998 262.387 60.0598Z" fill="#FD9F00"/>
<path d="M267.353 60.38C267.666 55.52 270.426 52.5933 274.273 52.84C275.268 52.8637 276.235 53.1704 277.061 53.7242C277.888 54.2779 278.539 55.0558 278.94 55.9667H278.993L279.526 47.6733L282.686 47.88L281.353 69.0267L278.293 68.8267L278.466 66.2067H278.333C277.817 67.0696 277.067 67.769 276.171 68.2243C275.275 68.6797 274.268 68.8723 273.266 68.78C269.406 68.52 267.046 65.2467 267.353 60.38ZM270.573 60.5933C270.366 63.8467 271.793 65.98 274.286 66.1467C276.78 66.3133 278.453 64.34 278.66 61.1133C278.866 57.8867 277.386 55.72 274.966 55.56C272.546 55.4 270.78 57.3533 270.573 60.5933Z" fill="#FD9F00"/>
<path d="M286.266 56.3801L284.153 56.2467L284.313 53.7667L286.426 53.9067L286.52 52.3934C286.713 49.4067 288.2 48.0867 291.32 48.2934C291.91 48.3332 292.496 48.4202 293.073 48.5534L292.92 50.8934C292.545 50.8089 292.164 50.7553 291.78 50.7334C290.406 50.6467 289.72 51.2934 289.633 52.6534L289.54 54.1067L292.646 54.3067L292.486 56.7867L289.426 56.5867L288.6 69.5001L285.44 69.2934L286.266 56.3801Z" fill="#FD9F00"/>
</svg>
